<svg xmlns="http://www.w3.org/2000/svg" width="158" height="40" viewBox="0 0 158 40" fill="none"><g clip-path="url(#clip0_3001_8047)"><path fill-rule="evenodd" clip-rule="evenodd" d="M57.9813 12.1399C59.8529 12.21 61.4365 12.8416 62.8041 14.0346V5.75391H65.5394V19.9293C65.5754 22.0697 64.8196 23.9293 63.2 25.5083C61.6524 26.982 59.8529 27.7539 57.8374 27.7539C57.7294 27.7539 57.6214 27.7539 57.5494 27.7539C55.462 27.7188 53.6264 26.9118 52.1868 25.403C50.7472 23.8943 50.0273 22.0697 50.0273 19.9995C50.0273 17.8241 50.8191 15.9644 52.3668 14.4206C53.9144 12.8065 55.7859 12.0697 57.9813 12.1399ZM57.8374 14.8416H57.7294C56.3977 14.8416 55.21 15.3329 54.2383 16.3153C53.2665 17.2978 52.7627 18.4557 52.7267 19.8592C52.6907 21.2276 53.1585 22.4557 54.1303 23.4732C55.0661 24.4907 56.2178 25.0171 57.5494 25.0521C57.6574 25.0521 57.7294 25.0521 57.8374 25.0521C59.169 25.0521 60.2847 24.5609 61.2565 23.5785C62.3002 22.4907 62.8041 21.2627 62.7321 19.8241C62.6961 18.4557 62.2283 17.2978 61.2565 16.2802C60.3207 15.2978 59.205 14.8416 57.8374 14.8416Z" fill="white"></path><path fill-rule="evenodd" clip-rule="evenodd" d="M77.4886 21.0885C77.4886 22.1412 77.0927 23.0535 76.3009 23.8605C75.5091 24.6324 74.6093 25.0184 73.5296 25.0184C72.4499 25.0184 71.5501 24.6324 70.7583 23.8956C69.9665 23.1236 69.5706 22.2114 69.5706 21.1236V12.4219H66.7993V20.878C66.7993 22.8078 67.4471 24.457 68.7068 25.7552C70.0025 27.0535 71.6221 27.7201 73.5656 27.7201C75.5091 27.7201 77.1287 27.0535 78.3884 25.7552C79.6841 24.457 80.3319 22.8429 80.3319 20.878V12.4219H77.5606V21.0885H77.4886Z" fill="white"></path><path fill-rule="evenodd" clip-rule="evenodd" d="M89.1492 12.072C91.2726 12.1422 93.1082 12.9492 94.5478 14.493C96.0234 16.0018 96.7432 17.8264 96.6712 19.8965V19.9667V27.3702H93.9719V25.7913C92.5323 27.0544 90.8767 27.7211 88.9692 27.7211C88.8612 27.7211 88.7892 27.7211 88.6813 27.7211C86.5938 27.6509 84.7943 26.8439 83.3546 25.3351C81.915 23.8264 81.1592 22.0018 81.1592 19.9316C81.1592 17.7562 81.951 15.8965 83.4986 14.3527C85.0462 12.7386 86.9537 11.9667 89.1492 12.072ZM92.4243 16.1772C91.4886 15.2299 90.3369 14.7386 89.0052 14.7386C87.6015 14.7386 86.4138 15.2299 85.4061 16.2123C84.4343 17.1948 83.9305 18.3527 83.8945 19.7562C83.8585 21.1597 84.3264 22.3527 85.2621 23.3702C86.1979 24.3878 87.3136 24.9141 88.7173 24.9843C88.7892 24.9843 88.8972 24.9843 88.9692 24.9843C90.3009 24.9843 91.4166 24.493 92.3883 23.5106C93.4321 22.4229 93.9359 21.1948 93.8999 19.7211C93.8999 18.3527 93.3961 17.1948 92.4243 16.1772Z" fill="white"></path><path fill-rule="evenodd" clip-rule="evenodd" d="M98.3633 27.3326H101.135V5.64844H98.3633V27.3326Z" fill="white"></path><path fill-rule="evenodd" clip-rule="evenodd" d="M105.633 13.9291C106.965 12.7362 108.584 12.1046 110.456 12.0344C112.651 11.9642 114.523 12.7011 116.106 14.28C117.69 15.8239 118.482 17.7186 118.482 19.859C118.482 21.9291 117.726 23.7537 116.286 25.2625C114.847 26.7712 113.047 27.5783 110.924 27.6484C110.816 27.6484 110.708 27.6484 110.636 27.6484C108.62 27.6484 106.785 26.8765 105.273 25.4028C103.69 23.859 102.898 21.9642 102.934 19.8239V5.64844H105.669V13.9291H105.633ZM114.271 23.3677C115.243 22.3151 115.675 21.1572 115.675 19.7537C115.639 18.3853 115.135 17.2274 114.163 16.2449C113.155 15.2274 112.003 14.7712 110.6 14.7712C109.268 14.7712 108.116 15.2625 107.181 16.2098C106.209 17.2274 105.705 18.3853 105.705 19.7537C105.669 21.2274 106.137 22.4555 107.181 23.5432C108.224 24.5958 109.448 25.087 110.852 25.0169C112.219 24.9116 113.335 24.3853 114.271 23.3677Z" fill="white"></path><path fill-rule="evenodd" clip-rule="evenodd" d="M121.253 14.3166C122.801 12.7376 124.708 12.0008 126.868 12.071C128.991 12.1412 130.791 12.9482 132.23 14.492C133.67 16.0008 134.426 17.8254 134.426 19.8955C134.426 22.0359 133.634 23.8955 132.05 25.4745C130.539 26.9482 128.775 27.7201 126.724 27.7201C126.616 27.7201 126.508 27.7201 126.436 27.7201C124.348 27.685 122.549 26.878 121.073 25.3692C119.634 23.8605 118.914 22.0359 118.914 19.9657C118.878 17.7201 119.67 15.8605 121.253 14.3166ZM126.76 14.7727H126.652C125.32 14.7727 124.168 15.264 123.161 16.2464C122.189 17.2289 121.685 18.3868 121.649 19.7903C121.613 21.1938 122.081 22.3868 123.017 23.4043C123.952 24.4219 125.104 24.9482 126.436 24.9833C126.544 24.9833 126.616 24.9833 126.724 24.9833C128.055 24.9833 129.171 24.492 130.143 23.5096C131.187 22.4219 131.691 21.1938 131.655 19.7552C131.619 18.3868 131.115 17.2289 130.143 16.2113C129.207 15.2289 128.091 14.7727 126.76 14.7727Z" fill="white"></path><path fill-rule="evenodd" clip-rule="evenodd" d="M137.485 14.3166C139.033 12.7376 140.94 12.0008 143.1 12.071C145.223 12.1412 147.023 12.9482 148.462 14.492C149.902 16.0008 150.658 17.8254 150.658 19.8955C150.658 22.0359 149.866 23.8955 148.282 25.4745C146.771 26.9482 145.007 27.7201 142.956 27.7201C142.848 27.7201 142.74 27.7201 142.668 27.7201C140.58 27.685 138.781 26.878 137.305 25.3692C135.866 23.8605 135.146 22.0359 135.146 19.9657C135.11 17.7201 135.902 15.8605 137.485 14.3166ZM142.992 14.7727H142.884C141.552 14.7727 140.4 15.264 139.393 16.2464C138.421 17.2289 137.917 18.3868 137.881 19.7903C137.845 21.1938 138.313 22.3868 139.249 23.4043C140.184 24.4219 141.336 24.9482 142.668 24.9833C142.776 24.9833 142.848 24.9833 142.956 24.9833C144.287 24.9833 145.403 24.492 146.375 23.5096C147.419 22.4219 147.922 21.1938 147.886 19.7552C147.85 18.3868 147.347 17.2289 146.375 16.2113C145.439 15.2289 144.323 14.7727 142.992 14.7727Z" fill="white"></path><path fill-rule="evenodd" clip-rule="evenodd" d="M155.157 12.807V5.85962H152.565V12.807H150.01V15.3684H152.565V27.8245H155.157V15.3684H157.712V12.807H155.157Z" fill="white"></path><path fill-rule="evenodd" clip-rule="evenodd" d="M52.1146 34.212H53.5183C55.9297 34.212 55.9297 30.7734 53.5183 30.7734C53.1224 30.7734 52.7265 30.7734 52.3666 30.7734C51.9707 30.7734 51.5748 30.7734 51.2148 30.7734V35.6506H52.1506V34.212H52.1146ZM53.5183 33.3699H52.1146V31.6506H53.5183C54.67 31.6506 54.706 33.3699 53.5183 33.3699Z" fill="white"></path><path fill-rule="evenodd" clip-rule="evenodd" d="M66.4389 34.7383H69.0303L69.4622 35.6506H70.4699L68.2745 30.7734H67.2667L65.0713 35.6506H66.079L66.4389 34.7383ZM66.7989 33.8612L67.6986 31.791L68.5984 33.8612H66.7989Z" fill="white"></path><path fill-rule="evenodd" clip-rule="evenodd" d="M83.6786 35.6506H84.7943V35.5805L83.3187 33.9313C84.2545 33.7559 84.5784 33.0541 84.5784 32.3875C84.5784 31.5454 83.9666 30.7734 82.8148 30.7734C82.4189 30.7734 82.023 30.7734 81.6272 30.7734C81.2313 30.7734 80.8354 30.7734 80.4395 30.7734V35.6506H81.3752V34.0366H82.275L83.6786 35.6506ZM81.3392 33.1945V31.6506H82.7429C83.3187 31.6506 83.5707 32.0366 83.5707 32.4226C83.5707 32.8085 83.3187 33.1945 82.7429 33.1945H81.3392Z" fill="white"></path><path fill-rule="evenodd" clip-rule="evenodd" d="M96.2038 31.6155H94.6562V30.7734C96.0599 30.7734 97.2836 30.7734 98.7232 30.7734V31.6155H97.1756V35.6506H96.2398V31.6155H96.2038Z" fill="white"></path><path fill-rule="evenodd" clip-rule="evenodd" d="M112.075 30.7734H113.011V35.6506H112.435L109.844 32.3524V35.6155H108.908V30.7734H109.664L112.075 33.791V30.7734Z" fill="white"></path><path fill-rule="evenodd" clip-rule="evenodd" d="M127.084 35.6506H123.413C123.413 34.0366 123.413 32.4226 123.413 30.7734H127.084V31.6506H124.312V32.7734H126.976V33.6155H124.312V34.7383H127.084V35.6506Z" fill="white"></path><path fill-rule="evenodd" clip-rule="evenodd" d="M140.616 35.6506H141.732V35.5805L140.256 33.9313C141.192 33.7559 141.516 33.0541 141.516 32.3875C141.516 31.5454 140.904 30.7734 139.752 30.7734C139.356 30.7734 138.961 30.7734 138.565 30.7734C138.169 30.7734 137.773 30.7734 137.377 30.7734V35.6506H138.313V34.0366H139.212L140.616 35.6506ZM138.277 33.1945V31.6506H139.68C140.256 31.6506 140.508 32.0366 140.508 32.4226C140.508 32.8085 140.256 33.1945 139.68 33.1945H138.277Z" fill="white"></path><path fill-rule="evenodd" clip-rule="evenodd" d="M154.941 31.9661C154.761 31.6854 154.293 31.4398 153.789 31.4398C153.105 31.4398 152.781 31.7205 152.781 32.0714C152.781 32.4925 153.285 32.5977 153.897 32.6679C154.941 32.8083 155.876 33.0539 155.876 34.2118C155.876 35.2995 154.905 35.7556 153.825 35.7556C152.817 35.7556 152.061 35.4398 151.666 34.5626L152.421 34.1767C152.637 34.703 153.213 34.9486 153.825 34.9486C154.401 34.9486 154.941 34.7381 154.941 34.2118C154.941 33.7556 154.473 33.5802 153.789 33.51C152.781 33.4047 151.845 33.124 151.845 32.0363C151.845 31.0539 152.853 30.6328 153.753 30.6328C154.509 30.6328 155.301 30.8433 155.697 31.6153L154.941 31.9661Z" fill="white"></path><path fill-rule="evenodd" clip-rule="evenodd" d="M32.316 20.3699H35.299C35.299 20.5121 35.2635 20.6898 35.2635 20.832C35.0859 22.8936 34.2336 24.7064 32.7421 26.1992C31.0375 27.9409 28.9778 28.794 26.6341 28.6874C24.6099 28.6163 22.8698 27.9054 21.4138 26.5902V39.9906C20.9521 40.0261 20.455 40.0261 19.9933 40.0261C19.4606 40.0261 18.9634 39.9906 18.4663 39.9551C18.2177 39.9551 18.0046 39.9195 17.756 39.884C7.88368 38.8176 0.17756 30.5001 0 20.3699C0 20.2633 0 20.1211 0 20.0144C0 19.9078 0 19.7656 0 19.659C0.17756 9.52874 7.91919 1.21126 17.7915 0.109375V2.81078C9.4107 3.87712 2.84097 10.9861 2.66341 19.659C2.66341 19.7656 2.66341 19.9078 2.66341 20.0144C2.66341 20.1211 2.66341 20.2633 2.66341 20.3699C2.84097 29.0073 9.37519 36.1518 17.756 37.2181C18.0046 37.2537 18.2177 37.2892 18.4663 37.2892V27.5499C18.7859 27.3011 19.1055 27.0168 19.3896 26.7324C20.7035 25.4528 21.5203 23.9599 21.9109 22.2893C22.195 22.9291 22.5857 23.5334 23.0828 24.0665C24.1127 25.1684 25.3201 25.6661 26.8116 25.6661H26.9181C28.3741 25.6661 29.6526 25.1329 30.6824 24.031C31.4992 23.1779 32.0319 22.2538 32.2094 21.1163C32.245 20.8675 32.2805 20.6187 32.2805 20.3699C32.316 20.4054 32.316 20.4054 32.316 20.3699Z" fill="white"></path><path fill-rule="evenodd" clip-rule="evenodd" d="M39.9865 19.6563C39.8089 9.526 32.0673 1.20852 22.1949 0.106634C21.9463 0.0710896 21.7333 0.0710896 21.4847 0.0355448C20.9875 7.21024e-09 20.4904 0 19.9932 0C19.496 0 18.9988 7.21024e-09 18.5017 0.0355448V13.4359C17.0457 12.1208 15.2701 11.4099 13.2814 11.3388C10.9376 11.2677 8.8779 12.0852 7.17332 13.8269C6.14347 14.8933 5.39772 16.1018 5.00709 17.4169C4.97158 17.5236 4.97158 17.6302 4.93606 17.7368C4.90055 17.8435 4.86504 17.9501 4.86504 18.0567C4.82953 18.2345 4.79402 18.4122 4.7585 18.6255C4.7585 18.661 4.7585 18.6966 4.72299 18.7676C4.72299 18.8743 4.68748 19.0165 4.68748 19.1231C4.68748 19.1942 4.68748 19.2653 4.65197 19.3364C4.65197 19.443 4.65197 19.5852 4.61646 19.6918H7.59947C7.59947 19.5496 7.63498 19.4074 7.63498 19.2297C7.63498 19.1231 7.67049 19.0165 7.67049 18.9454C7.67049 18.9454 7.67049 18.9454 7.67049 18.9098C7.67049 18.8032 7.706 18.6966 7.74152 18.6255C7.77703 18.4122 7.84805 18.2345 7.91908 18.0212C7.95459 17.9146 7.9901 17.8435 8.02561 17.7368C8.06113 17.6302 8.09664 17.5591 8.16766 17.4525C8.41625 16.9193 8.77137 16.4217 9.23302 15.9951C10.2984 14.9288 11.5768 14.3601 12.9973 14.3601H13.1038C14.5953 14.3601 15.8028 14.8933 16.8326 15.9951C17.2588 16.4572 17.6139 16.9549 17.8625 17.4525C17.898 17.5591 17.969 17.6658 18.0045 17.7724C18.04 17.6658 18.04 17.5591 18.0755 17.4525C18.4662 15.9241 19.2829 14.5378 20.5259 13.3293C20.81 13.0449 21.1296 12.7606 21.4492 12.5118V2.73695C21.6978 2.77249 21.9108 2.77249 22.1594 2.80804C30.5758 3.87438 37.11 11.0189 37.2876 19.6563C37.2876 19.7629 37.2876 19.9051 37.2876 20.0117C37.2876 20.1183 37.2876 20.2605 37.2876 20.3672C37.11 29.0401 30.5403 36.1846 22.0884 37.2509V39.9168C31.9963 38.8504 39.7734 30.533 39.951 20.3672C39.951 20.2605 39.951 20.1183 39.951 20.0117C39.9865 19.9051 39.9865 19.7629 39.9865 19.6563Z" fill="white"></path><path fill-rule="evenodd" clip-rule="evenodd" d="M32.9555 13.935C31.3929 12.2644 29.4043 11.3758 27.1315 11.3047C27.0249 11.3047 26.9184 11.3047 26.8119 11.3047C26.5278 11.3047 26.2437 11.3047 25.9596 11.3402C25.853 11.3402 25.7465 11.3758 25.64 11.3758C25.3914 11.4113 25.1783 11.4469 24.9297 11.518C24.6812 11.589 24.4681 11.6601 24.2195 11.7312C24.184 11.7312 24.184 11.7312 24.1485 11.7668C23.0121 12.1578 21.9467 12.8331 20.9524 13.7928C19.887 14.8592 19.1768 16.1032 18.7506 17.4184C18.502 18.2359 18.431 18.9824 18.3955 19.6577C18.3955 19.9065 18.36 20.1198 18.36 20.3686C18.3245 20.9018 18.2535 21.3994 18.1114 21.9326C17.6853 23.3188 16.6909 24.4207 15.448 25.0961C14.7378 25.4871 13.9565 25.6648 13.1397 25.6648C13.0332 25.6648 12.9622 25.6648 12.8556 25.6648C11.3641 25.6292 10.1567 25.025 9.12686 23.8875C8.20355 22.8567 7.70638 21.6838 7.63536 20.3331H4.65234C4.72337 22.5368 5.50463 24.4563 6.99614 26.0558C8.55867 27.7264 10.5118 28.615 12.7846 28.6861C12.8911 28.6861 12.9977 28.6861 13.1042 28.6861C13.3883 28.6861 13.6724 28.6861 13.9565 28.6505C14.063 28.6505 14.1696 28.615 14.2761 28.615C14.5247 28.5794 14.7378 28.5439 14.9864 28.4728C15.0574 28.4728 15.1284 28.4373 15.1994 28.4373C15.2349 28.4373 15.2705 28.4373 15.306 28.4017C15.377 28.3662 15.4835 28.3662 15.5545 28.3306C15.7321 28.2595 15.9452 28.1885 16.1227 28.1174C17.1171 27.6908 18.0404 27.0866 18.9282 26.2335C20.1711 24.9894 21.0944 23.461 21.343 21.7193C21.414 21.2928 21.414 20.8307 21.4496 20.3686C21.4496 20.1198 21.4851 19.9065 21.4851 19.6577C21.5206 19.3734 21.5561 19.0534 21.5916 18.7691C21.9822 16.7075 23.5093 14.9658 25.569 14.4326C25.9596 14.326 26.3502 14.2904 26.7409 14.2904C26.8474 14.2904 26.9184 14.2904 27.0249 14.2904C28.5165 14.326 29.7239 14.9303 30.7537 16.0677C31.677 17.0985 32.1742 18.2715 32.2452 19.6222H35.2282C35.2282 17.4539 34.447 15.5345 32.9555 13.935Z" fill="white"></path></g><defs><clipPath id="clip0_3001_8047"><rect width="158" height="40" fill="white"></rect></clipPath></defs></svg>